<svg xmlns="http://www.w3.org/2000/svg" xmlns:xlink="http://www.w3.org/1999/xlink" viewBox="225 437 80 80">
  <defs>
    <style>
      .cls-1 {
        clip-path: url(#clip-code_3);
      }

      .cls-2 {
        fill: #d7d7d7;
      }

      .cls-3 {
        fill: #ff6159;
      }

      .cls-4 {
        fill: #ffbd2e;
      }

      .cls-5 {
        fill: #28ca42;
      }

      .cls-6 {
        fill: #8d8d8d;
      }

      .cls-7 {
        fill: #d09961;
      }

      .cls-8 {
        fill: #dc90b8;
      }

      .cls-9 {
        fill: #96c374;
      }

      .cls-10 {
        fill: #da6870;
      }

      .cls-11 {
        fill: #fff;
        stroke: #da6870;
      }

      .cls-12 {
        fill: #51b6c3;
      }

      .cls-13 {
        fill: #1d1d1d;
      }

      .cls-14 {
        fill: #717171;
      }

      .cls-15 {
        stroke: none;
      }

      .cls-16 {
        fill: none;
      }
    </style>
    <clipPath id="clip-code_3">
      <rect x="225" y="437" width="80" height="80"/>
    </clipPath>
  </defs>
  <g id="code_3" data-name="code – 3" class="cls-1">
    <path id="Rectangle_13" data-name="Rectangle 13" d="M0,0H80a0,0,0,0,1,0,0V47a3,3,0,0,1-3,3H3a3,3,0,0,1-3-3V0A0,0,0,0,1,0,0Z" transform="translate(225 455)"/>
    <path id="Rectangle_14" data-name="Rectangle 14" class="cls-2" d="M3,0H77a3,3,0,0,1,3,3V6a0,0,0,0,1,0,0H0A0,0,0,0,1,0,6V3A3,3,0,0,1,3,0Z" transform="translate(225 449)"/>
    <circle id="Ellipse_7" data-name="Ellipse 7" class="cls-3" cx="1" cy="1" r="1" transform="translate(229 451)"/>
    <circle id="Ellipse_8" data-name="Ellipse 8" class="cls-4" cx="1" cy="1" r="1" transform="translate(232 451)"/>
    <circle id="Ellipse_9" data-name="Ellipse 9" class="cls-5" cx="1" cy="1" r="1" transform="translate(235 451)"/>
    <rect id="Rectangle_15" data-name="Rectangle 15" class="cls-6" width="16" height="1" rx="0.5" transform="translate(241 461)"/>
    <rect id="Rectangle_16" data-name="Rectangle 16" class="cls-7" width="20" height="1" rx="0.5" transform="translate(241 466)"/>
    <rect id="Rectangle_27" data-name="Rectangle 27" class="cls-7" width="20" height="1" rx="0.5" transform="translate(241 486)"/>
    <rect id="Rectangle_29" data-name="Rectangle 29" class="cls-8" width="34" height="1" rx="0.5" transform="translate(253 491)"/>
    <rect id="Rectangle_17" data-name="Rectangle 17" class="cls-9" width="4" height="1" rx="0.5" transform="translate(263 466)"/>
    <rect id="Rectangle_28" data-name="Rectangle 28" class="cls-9" width="4" height="1" rx="0.5" transform="translate(263 486)"/>
    <rect id="Rectangle_18" data-name="Rectangle 18" class="cls-10" width="4" height="1" rx="0.5" transform="translate(247 471)"/>
    <rect id="Rectangle_30" data-name="Rectangle 30" class="cls-10" width="4" height="1" rx="0.5" transform="translate(247 491)"/>
    <g id="Rectangle_23" data-name="Rectangle 23" class="cls-11" transform="translate(247 476)">
      <rect class="cls-15" width="4" height="1" rx="0.5"/>
      <rect class="cls-16" x="0.5" y="0.5" width="3"/>
    </g>
    <g id="Rectangle_26" data-name="Rectangle 26" class="cls-11" transform="translate(247 481)">
      <rect class="cls-15" width="4" height="1" rx="0.5"/>
      <rect class="cls-16" x="0.5" y="0.5" width="3"/>
    </g>
    <rect id="Rectangle_20" data-name="Rectangle 20" class="cls-10" width="4" height="1" rx="0.5" transform="translate(275 471)"/>
    <rect id="Rectangle_21" data-name="Rectangle 21" class="cls-10" width="4" height="1" rx="0.5" transform="translate(275 476)"/>
    <rect id="Rectangle_24" data-name="Rectangle 24" class="cls-10" width="4" height="1" rx="0.5" transform="translate(275 481)"/>
    <rect id="Rectangle_19" data-name="Rectangle 19" class="cls-12" width="20" height="1" rx="0.5" transform="translate(253 471)"/>
    <rect id="Rectangle_22" data-name="Rectangle 22" class="cls-12" width="20" height="1" rx="0.5" transform="translate(253 476)"/>
    <rect id="Rectangle_25" data-name="Rectangle 25" class="cls-9" width="20" height="1" rx="0.5" transform="translate(253 481)"/>
    <path id="Rectangle_31" data-name="Rectangle 31" class="cls-13" d="M0,0H12a0,0,0,0,1,0,0V50a0,0,0,0,1,0,0H3a3,3,0,0,1-3-3V0A0,0,0,0,1,0,0Z" transform="translate(225 455)"/>
    <rect id="Rectangle_32" data-name="Rectangle 32" class="cls-14" width="4" height="1" rx="0.5" transform="translate(229 461)"/>
    <rect id="Rectangle_37" data-name="Rectangle 37" class="cls-14" width="4" height="1" rx="0.5" transform="translate(229 470)"/>
    <rect id="Rectangle_33" data-name="Rectangle 33" class="cls-14" width="4" height="1" rx="0.5" transform="translate(229 464)"/>
    <rect id="Rectangle_36" data-name="Rectangle 36" class="cls-14" width="4" height="1" rx="0.5" transform="translate(229 473)"/>
    <rect id="Rectangle_34" data-name="Rectangle 34" class="cls-14" width="4" height="1" rx="0.5" transform="translate(229 467)"/>
    <rect id="Rectangle_35" data-name="Rectangle 35" class="cls-14" width="4" height="1" rx="0.5" transform="translate(229 476)"/>
  </g>
</svg>
