<svg xmlns="http://www.w3.org/2000/svg" xmlns:xlink="http://www.w3.org/1999/xlink" viewBox="225 107 80 80">
  <defs>
    <style>
      .cls-1 {
        clip-path: url(#clip-code_1);
      }

      .cls-2, .cls-5 {
        fill: none;
      }

      .cls-2 {
        stroke: #414042;
        stroke-width: 2px;
      }

      .cls-3 {
        fill: #414042;
      }

      .cls-4 {
        stroke: none;
      }
    </style>
    <clipPath id="clip-code_1">
      <rect x="225" y="107" width="80" height="80"/>
    </clipPath>
  </defs>
  <g id="code_1" data-name="code – 1" class="cls-1">
    <g id="Rectangle_261" data-name="Rectangle 261" class="cls-2" transform="translate(225 120)">
      <rect class="cls-4" width="80" height="54" rx="3"/>
      <rect class="cls-5" x="1" y="1" width="78" height="52" rx="2"/>
    </g>
    <circle id="Ellipse_24" data-name="Ellipse 24" class="cls-3" cx="1" cy="1" r="1" transform="translate(229 124)"/>
    <circle id="Ellipse_25" data-name="Ellipse 25" class="cls-3" cx="1" cy="1" r="1" transform="translate(232 124)"/>
    <circle id="Ellipse_26" data-name="Ellipse 26" class="cls-3" cx="1" cy="1" r="1" transform="translate(235 124)"/>
    <rect id="Rectangle_277" data-name="Rectangle 277" class="cls-3" width="16" height="2" rx="1" transform="translate(245 134)"/>
    <rect id="Rectangle_271" data-name="Rectangle 271" class="cls-3" width="20" height="2" rx="1" transform="translate(245 139)"/>
    <rect id="Rectangle_270" data-name="Rectangle 270" class="cls-3" width="20" height="2" rx="1" transform="translate(245 159)"/>
    <rect id="Rectangle_262" data-name="Rectangle 262" class="cls-3" width="34" height="2" rx="1" transform="translate(257 164)"/>
    <rect id="Rectangle_272" data-name="Rectangle 272" class="cls-3" width="4" height="2" rx="1" transform="translate(267 139)"/>
    <rect id="Rectangle_267" data-name="Rectangle 267" class="cls-3" width="4" height="2" rx="1" transform="translate(267 159)"/>
    <rect id="Rectangle_273" data-name="Rectangle 273" class="cls-3" width="4" height="2" rx="1" transform="translate(251 144)"/>
    <rect id="Rectangle_274" data-name="Rectangle 274" class="cls-3" width="4" height="2" rx="1" transform="translate(251 149)"/>
    <rect id="Rectangle_275" data-name="Rectangle 275" class="cls-3" width="4" height="2" rx="1" transform="translate(251 154)"/>
    <rect id="Rectangle_276" data-name="Rectangle 276" class="cls-3" width="4" height="2" rx="1" transform="translate(251 164)"/>
    <rect id="Rectangle_268" data-name="Rectangle 268" class="cls-3" width="4" height="2" rx="1" transform="translate(279 144)"/>
    <rect id="Rectangle_264" data-name="Rectangle 264" class="cls-3" width="4" height="2" rx="1" transform="translate(279 149)"/>
    <rect id="Rectangle_263" data-name="Rectangle 263" class="cls-3" width="4" height="2" rx="1" transform="translate(279 154)"/>
    <rect id="Rectangle_269" data-name="Rectangle 269" class="cls-3" width="20" height="2" rx="1" transform="translate(257 144)"/>
    <rect id="Rectangle_265" data-name="Rectangle 265" class="cls-3" width="20" height="2" rx="1" transform="translate(257 149)"/>
    <rect id="Rectangle_266" data-name="Rectangle 266" class="cls-3" width="20" height="2" rx="1" transform="translate(257 154)"/>
    <rect id="Rectangle_279" data-name="Rectangle 279" class="cls-3" width="8" height="2" rx="1" transform="translate(229 134)"/>
    <rect id="Rectangle_280" data-name="Rectangle 280" class="cls-3" width="8" height="2" rx="1" transform="translate(229 146)"/>
    <rect id="Rectangle_281" data-name="Rectangle 281" class="cls-3" width="8" height="2" rx="1" transform="translate(229 138)"/>
    <rect id="Rectangle_282" data-name="Rectangle 282" class="cls-3" width="8" height="2" rx="1" transform="translate(229 150)"/>
    <rect id="Rectangle_283" data-name="Rectangle 283" class="cls-3" width="8" height="2" rx="1" transform="translate(229 142)"/>
    <rect id="Rectangle_284" data-name="Rectangle 284" class="cls-3" width="8" height="2" rx="1" transform="translate(229 154)"/>
    <rect id="Rectangle_285" data-name="Rectangle 285" class="cls-3" width="2" height="44" transform="translate(239 128)"/>
    <rect id="Rectangle_286" data-name="Rectangle 286" class="cls-3" width="76" height="2" transform="translate(227 128)"/>
  </g>
</svg>
